<svg width="1440" height="1024" viewBox="0 0 1440 1024" fill="none" xmlns="http://www.w3.org/2000/svg">
<g clip-path="url(#clip0)">
<rect width="1440" height="1024" fill="#7A86F1"/>
<circle cx="1292" cy="97" r="25" fill="#FE6B90"/>
<path d="M-131.26 891.03C-64.3115 836.426 190.24 724.53 164.24 847.53C138.24 970.53 -42.2093 1045.63 -42.2093 1045.63L-168.209 1068.63C-208.709 1056.13 -198.209 945.635 -131.26 891.03Z" fill="#9497EE" stroke="#9497EE"/>
<path d="M265.163 -119.482C269.208 -142.542 542.909 -154 542.909 -154C542.909 -154 969.926 -139.42 991.383 -139.42C1012.84 -139.42 1034.36 13.4793 970.994 9.06361C907.625 4.6479 931.894 66.4676 900.209 112.587C868.524 158.706 832.12 119.456 797.739 66.4676C763.357 13.4793 718.673 -3.87111 621.596 25.5668C548.67 47.6812 409.315 -21.9428 352.024 -67.6539C307.452 -75.0466 261.927 -101.033 265.163 -119.482Z" fill="#9497EE" stroke="#9497EE"/>
<path d="M1544.81 689.895C1375.88 729.591 1475.47 649.777 1423.35 570.385C1371.23 490.994 1266.05 535.335 1321.9 670.047C1377.74 804.76 1458.71 770.976 1531.31 751.128C1603.91 731.28 1713.73 650.199 1544.81 689.895Z" fill="#9497EE" stroke="#9497EE"/>
</g>
<defs>
<clipPath id="clip0">
<rect width="1440" height="1024" fill="white"/>
</clipPath>
</defs>
</svg>
